<mxfile host="app.diagrams.net" agent="Mozilla/5.0 (Windows NT 10.0; Win64; x64) AppleWebKit/537.36 (KHTML, like Gecko) Chrome/127.0.0.0 Safari/537.36" version="24.7.17">
  <diagram name="PÃ¡gina-1" id="o3eW2r59xNOU6FzHnHHw">
    <mxGraphModel grid="1" page="1" gridSize="10" guides="1" tooltips="1" connect="1" arrows="1" fold="1" pageScale="1" pageWidth="827" pageHeight="1169" math="0" shadow="0">
      <root>
        <mxCell id="0" />
        <mxCell id="1" parent="0" />
        <mxCell id="rGakkJB8vv-mSL2w8_nE-3" value="ZONA" style="shape=ext;margin=3;double=1;whiteSpace=wrap;html=1;align=center;fillColor=#CCE5FF;" vertex="1" parent="1">
          <mxGeometry x="320" y="360" width="200" height="80" as="geometry" />
        </mxCell>
        <mxCell id="vIUyFsAdmzh0yU3LFWPC-7" style="edgeStyle=orthogonalEdgeStyle;rounded=0;orthogonalLoop=1;jettySize=auto;html=1;entryX=0;entryY=0.5;entryDx=0;entryDy=0;" edge="1" parent="1" source="rGakkJB8vv-mSL2w8_nE-4" target="vIUyFsAdmzh0yU3LFWPC-6">
          <mxGeometry relative="1" as="geometry" />
        </mxCell>
        <mxCell id="vIUyFsAdmzh0yU3LFWPC-10" style="edgeStyle=orthogonalEdgeStyle;rounded=0;orthogonalLoop=1;jettySize=auto;html=1;entryX=0.5;entryY=0;entryDx=0;entryDy=0;" edge="1" parent="1" source="rGakkJB8vv-mSL2w8_nE-4" target="vIUyFsAdmzh0yU3LFWPC-9">
          <mxGeometry relative="1" as="geometry" />
        </mxCell>
        <mxCell id="rGakkJB8vv-mSL2w8_nE-4" value="VIVERO" style="rounded=0;whiteSpace=wrap;html=1;fillColor=#CCE5FF;" vertex="1" parent="1">
          <mxGeometry x="320" y="40" width="200" height="80" as="geometry" />
        </mxCell>
        <mxCell id="vIUyFsAdmzh0yU3LFWPC-12" style="edgeStyle=orthogonalEdgeStyle;rounded=0;orthogonalLoop=1;jettySize=auto;html=1;entryX=1;entryY=0.5;entryDx=0;entryDy=0;" edge="1" parent="1" source="vIUyFsAdmzh0yU3LFWPC-3" target="rGakkJB8vv-mSL2w8_nE-3">
          <mxGeometry relative="1" as="geometry" />
        </mxCell>
        <mxCell id="vIUyFsAdmzh0yU3LFWPC-3" value="Asigna" style="shape=rhombus;perimeter=rhombusPerimeter;whiteSpace=wrap;html=1;align=center;fillColor=#FFF2CC;" vertex="1" parent="1">
          <mxGeometry x="874" y="360" width="210" height="80" as="geometry" />
        </mxCell>
        <mxCell id="vIUyFsAdmzh0yU3LFWPC-4" style="edgeStyle=orthogonalEdgeStyle;rounded=0;orthogonalLoop=1;jettySize=auto;html=1;exitX=0.5;exitY=1;exitDx=0;exitDy=0;entryX=0.5;entryY=0;entryDx=0;entryDy=0;" edge="1" parent="1" source="vIUyFsAdmzh0yU3LFWPC-5" target="vIUyFsAdmzh0yU3LFWPC-3">
          <mxGeometry relative="1" as="geometry">
            <mxPoint x="170" y="20" as="sourcePoint" />
            <mxPoint x="425" y="220" as="targetPoint" />
          </mxGeometry>
        </mxCell>
        <mxCell id="vIUyFsAdmzh0yU3LFWPC-14" style="edgeStyle=orthogonalEdgeStyle;rounded=0;orthogonalLoop=1;jettySize=auto;html=1;entryX=0;entryY=0.5;entryDx=0;entryDy=0;" edge="1" parent="1" target="rGakkJB8vv-mSL2w8_nE-6">
          <mxGeometry relative="1" as="geometry">
            <mxPoint x="-175" y="400" as="sourcePoint" />
          </mxGeometry>
        </mxCell>
        <mxCell id="vIUyFsAdmzh0yU3LFWPC-5" value="&lt;div&gt;PRODUCTOS&lt;/div&gt;" style="rounded=0;whiteSpace=wrap;html=1;fillColor=#CCE5FF;" vertex="1" parent="1">
          <mxGeometry x="879" y="40" width="200" height="80" as="geometry" />
        </mxCell>
        <mxCell id="vIUyFsAdmzh0yU3LFWPC-8" style="edgeStyle=orthogonalEdgeStyle;rounded=0;orthogonalLoop=1;jettySize=auto;html=1;entryX=0;entryY=0.5;entryDx=0;entryDy=0;exitX=1;exitY=0.5;exitDx=0;exitDy=0;" edge="1" parent="1" source="vIUyFsAdmzh0yU3LFWPC-6" target="vIUyFsAdmzh0yU3LFWPC-5">
          <mxGeometry relative="1" as="geometry">
            <mxPoint x="822" y="80" as="sourcePoint" />
          </mxGeometry>
        </mxCell>
        <mxCell id="vIUyFsAdmzh0yU3LFWPC-6" value="Oferta" style="shape=rhombus;perimeter=rhombusPerimeter;whiteSpace=wrap;html=1;align=center;fillColor=#FFF2CC;" vertex="1" parent="1">
          <mxGeometry x="590" y="40" width="210" height="80" as="geometry" />
        </mxCell>
        <mxCell id="vIUyFsAdmzh0yU3LFWPC-11" style="edgeStyle=orthogonalEdgeStyle;rounded=0;orthogonalLoop=1;jettySize=auto;html=1;entryX=0.5;entryY=0;entryDx=0;entryDy=0;" edge="1" parent="1" source="vIUyFsAdmzh0yU3LFWPC-9" target="rGakkJB8vv-mSL2w8_nE-3">
          <mxGeometry relative="1" as="geometry" />
        </mxCell>
        <mxCell id="vIUyFsAdmzh0yU3LFWPC-9" value="Formado" style="shape=rhombus;perimeter=rhombusPerimeter;whiteSpace=wrap;html=1;align=center;fillColor=#FFF2CC;" vertex="1" parent="1">
          <mxGeometry x="315" y="210" width="210" height="80" as="geometry" />
        </mxCell>
        <mxCell id="rGakkJB8vv-mSL2w8_nE-6" value="Trabaja" style="shape=rhombus;perimeter=rhombusPerimeter;whiteSpace=wrap;html=1;align=center;fillColor=#FFF2CC;" vertex="1" parent="1">
          <mxGeometry x="-35" y="360" width="210" height="80" as="geometry" />
        </mxCell>
        <mxCell id="vIUyFsAdmzh0yU3LFWPC-17" style="edgeStyle=orthogonalEdgeStyle;rounded=0;orthogonalLoop=1;jettySize=auto;html=1;entryX=0;entryY=0.5;entryDx=0;entryDy=0;" edge="1" parent="1" source="rGakkJB8vv-mSL2w8_nE-6" target="rGakkJB8vv-mSL2w8_nE-3">
          <mxGeometry relative="1" as="geometry" />
        </mxCell>
        <mxCell id="vIUyFsAdmzh0yU3LFWPC-34" style="edgeStyle=orthogonalEdgeStyle;rounded=0;orthogonalLoop=1;jettySize=auto;html=1;entryX=0.5;entryY=1;entryDx=0;entryDy=0;" edge="1" parent="1" target="vIUyFsAdmzh0yU3LFWPC-32">
          <mxGeometry relative="1" as="geometry">
            <mxPoint x="-275" y="360" as="sourcePoint" />
          </mxGeometry>
        </mxCell>
        <mxCell id="vIUyFsAdmzh0yU3LFWPC-30" style="edgeStyle=orthogonalEdgeStyle;rounded=0;orthogonalLoop=1;jettySize=auto;html=1;entryX=0;entryY=0.5;entryDx=0;entryDy=0;exitX=1;exitY=0.5;exitDx=0;exitDy=0;" edge="1" parent="1" target="vIUyFsAdmzh0yU3LFWPC-20">
          <mxGeometry relative="1" as="geometry">
            <mxPoint x="-345" y="-230" as="sourcePoint" />
          </mxGeometry>
        </mxCell>
        <mxCell id="vIUyFsAdmzh0yU3LFWPC-31" style="edgeStyle=orthogonalEdgeStyle;rounded=0;orthogonalLoop=1;jettySize=auto;html=1;entryX=0;entryY=0.5;entryDx=0;entryDy=0;" edge="1" parent="1" source="vIUyFsAdmzh0yU3LFWPC-20" target="vIUyFsAdmzh0yU3LFWPC-23">
          <mxGeometry relative="1" as="geometry" />
        </mxCell>
        <mxCell id="vIUyFsAdmzh0yU3LFWPC-20" value="Encargan" style="shape=rhombus;perimeter=rhombusPerimeter;whiteSpace=wrap;html=1;align=center;fillColor=#FFF2CC;" vertex="1" parent="1">
          <mxGeometry x="-210" y="-270" width="210" height="80" as="geometry" />
        </mxCell>
        <mxCell id="vIUyFsAdmzh0yU3LFWPC-28" style="edgeStyle=orthogonalEdgeStyle;rounded=0;orthogonalLoop=1;jettySize=auto;html=1;entryX=0.5;entryY=0;entryDx=0;entryDy=0;" edge="1" parent="1" source="vIUyFsAdmzh0yU3LFWPC-23" target="vIUyFsAdmzh0yU3LFWPC-24">
          <mxGeometry relative="1" as="geometry" />
        </mxCell>
        <mxCell id="vIUyFsAdmzh0yU3LFWPC-23" value="PEDIDOS" style="shape=ext;margin=3;double=1;whiteSpace=wrap;html=1;align=center;fillColor=#CCE5FF;" vertex="1" parent="1">
          <mxGeometry x="180" y="-270" width="200" height="80" as="geometry" />
        </mxCell>
        <mxCell id="vIUyFsAdmzh0yU3LFWPC-26" style="edgeStyle=orthogonalEdgeStyle;rounded=0;orthogonalLoop=1;jettySize=auto;html=1;entryX=1;entryY=0.5;entryDx=0;entryDy=0;" edge="1" parent="1" source="vIUyFsAdmzh0yU3LFWPC-24" target="vIUyFsAdmzh0yU3LFWPC-5">
          <mxGeometry relative="1" as="geometry" />
        </mxCell>
        <mxCell id="vIUyFsAdmzh0yU3LFWPC-24" value="Compuesto" style="shape=rhombus;perimeter=rhombusPerimeter;whiteSpace=wrap;html=1;align=center;fillColor=#FFF2CC;" vertex="1" parent="1">
          <mxGeometry x="1260" y="40" width="210" height="80" as="geometry" />
        </mxCell>
        <mxCell id="vIUyFsAdmzh0yU3LFWPC-35" style="edgeStyle=orthogonalEdgeStyle;rounded=0;orthogonalLoop=1;jettySize=auto;html=1;entryX=0.5;entryY=1;entryDx=0;entryDy=0;" edge="1" parent="1" source="vIUyFsAdmzh0yU3LFWPC-32" target="vIUyFsAdmzh0yU3LFWPC-23">
          <mxGeometry relative="1" as="geometry" />
        </mxCell>
        <mxCell id="vIUyFsAdmzh0yU3LFWPC-32" value="Gestiona" style="shape=rhombus;perimeter=rhombusPerimeter;whiteSpace=wrap;html=1;align=center;fillColor=#FFF2CC;" vertex="1" parent="1">
          <mxGeometry x="-380" width="210" height="80" as="geometry" />
        </mxCell>
        <mxCell id="vIUyFsAdmzh0yU3LFWPC-36" value="VIVERO" style="rounded=0;whiteSpace=wrap;html=1;fillColor=#CCE5FF;" vertex="1" parent="1">
          <mxGeometry x="320" y="40" width="200" height="80" as="geometry" />
        </mxCell>
        <mxCell id="vIUyFsAdmzh0yU3LFWPC-106" value="" style="group" connectable="0" vertex="1" parent="1">
          <mxGeometry x="290" y="-110" width="60" height="60" as="geometry" />
        </mxCell>
        <mxCell id="vIUyFsAdmzh0yU3LFWPC-107" value="" style="ellipse;whiteSpace=wrap;html=1;aspect=fixed;fillColor=#000000;" vertex="1" parent="vIUyFsAdmzh0yU3LFWPC-106">
          <mxGeometry x="15" y="30" width="30" height="30" as="geometry" />
        </mxCell>
        <mxCell id="vIUyFsAdmzh0yU3LFWPC-108" value="ID" style="text;html=1;strokeColor=none;fillColor=none;align=center;verticalAlign=middle;whiteSpace=wrap;rounded=0;" vertex="1" parent="vIUyFsAdmzh0yU3LFWPC-106">
          <mxGeometry width="60" height="30" as="geometry" />
        </mxCell>
        <mxCell id="vIUyFsAdmzh0yU3LFWPC-109" value="" style="group" connectable="0" vertex="1" parent="1">
          <mxGeometry x="340" y="-110" width="60" height="60" as="geometry" />
        </mxCell>
        <mxCell id="vIUyFsAdmzh0yU3LFWPC-110" value="" style="ellipse;whiteSpace=wrap;html=1;aspect=fixed;fillColor=#CCE5FF;" vertex="1" parent="vIUyFsAdmzh0yU3LFWPC-109">
          <mxGeometry x="15" y="30" width="30" height="30" as="geometry" />
        </mxCell>
        <mxCell id="vIUyFsAdmzh0yU3LFWPC-111" value="Nombre" style="text;html=1;strokeColor=none;fillColor=none;align=center;verticalAlign=middle;whiteSpace=wrap;rounded=0;" vertex="1" parent="vIUyFsAdmzh0yU3LFWPC-109">
          <mxGeometry width="60" height="30" as="geometry" />
        </mxCell>
        <mxCell id="vIUyFsAdmzh0yU3LFWPC-118" value="" style="endArrow=none;html=1;rounded=0;entryX=0;entryY=0.5;entryDx=0;entryDy=0;exitX=0.75;exitY=0;exitDx=0;exitDy=0;" edge="1" parent="1" source="vIUyFsAdmzh0yU3LFWPC-36" target="vIUyFsAdmzh0yU3LFWPC-124">
          <mxGeometry width="50" height="50" relative="1" as="geometry">
            <mxPoint x="470" y="40" as="sourcePoint" />
            <mxPoint x="495" y="-50.000000000000455" as="targetPoint" />
          </mxGeometry>
        </mxCell>
        <mxCell id="vIUyFsAdmzh0yU3LFWPC-119" value="" style="endArrow=none;html=1;rounded=0;entryX=0.5;entryY=1;entryDx=0;entryDy=0;" edge="1" parent="1" target="vIUyFsAdmzh0yU3LFWPC-113">
          <mxGeometry width="50" height="50" relative="1" as="geometry">
            <mxPoint x="420" y="40" as="sourcePoint" />
            <mxPoint x="480" y="-20" as="targetPoint" />
          </mxGeometry>
        </mxCell>
        <mxCell id="vIUyFsAdmzh0yU3LFWPC-120" value="" style="endArrow=none;html=1;rounded=0;entryX=0.5;entryY=1;entryDx=0;entryDy=0;exitX=0.5;exitY=0;exitDx=0;exitDy=0;" edge="1" parent="1" source="vIUyFsAdmzh0yU3LFWPC-36" target="vIUyFsAdmzh0yU3LFWPC-110">
          <mxGeometry width="50" height="50" relative="1" as="geometry">
            <mxPoint x="430" y="30" as="sourcePoint" />
            <mxPoint x="480" y="-20" as="targetPoint" />
          </mxGeometry>
        </mxCell>
        <mxCell id="vIUyFsAdmzh0yU3LFWPC-121" value="" style="endArrow=none;html=1;rounded=0;entryX=0.5;entryY=1;entryDx=0;entryDy=0;exitX=0.25;exitY=0;exitDx=0;exitDy=0;" edge="1" parent="1" source="vIUyFsAdmzh0yU3LFWPC-36" target="vIUyFsAdmzh0yU3LFWPC-107">
          <mxGeometry width="50" height="50" relative="1" as="geometry">
            <mxPoint x="430" y="30" as="sourcePoint" />
            <mxPoint x="480" y="-20" as="targetPoint" />
          </mxGeometry>
        </mxCell>
        <mxCell id="vIUyFsAdmzh0yU3LFWPC-117" value="TelÃ©fono" style="text;html=1;strokeColor=none;fillColor=none;align=center;verticalAlign=middle;whiteSpace=wrap;rounded=0;" vertex="1" parent="1">
          <mxGeometry x="560" y="-20" width="60" height="30" as="geometry" />
        </mxCell>
        <mxCell id="rGakkJB8vv-mSL2w8_nE-46" value="" style="ellipse;whiteSpace=wrap;html=1;aspect=fixed;fillColor=#CCE5FF;" vertex="1" parent="1">
          <mxGeometry x="380" y="520" width="30" height="30" as="geometry" />
        </mxCell>
        <mxCell id="rGakkJB8vv-mSL2w8_nE-42" value="" style="ellipse;whiteSpace=wrap;html=1;aspect=fixed;fillColor=#000000;" vertex="1" parent="1">
          <mxGeometry x="320" y="520" width="30" height="30" as="geometry" />
        </mxCell>
        <mxCell id="rGakkJB8vv-mSL2w8_nE-47" value="CÃ³digo&lt;br&gt;de zona" style="text;html=1;strokeColor=none;fillColor=none;align=center;verticalAlign=middle;whiteSpace=wrap;rounded=0;" vertex="1" parent="1">
          <mxGeometry x="305" y="560" width="60" height="30" as="geometry" />
        </mxCell>
        <mxCell id="rGakkJB8vv-mSL2w8_nE-48" value="Nombre" style="text;html=1;strokeColor=none;fillColor=none;align=center;verticalAlign=middle;whiteSpace=wrap;rounded=0;" vertex="1" parent="1">
          <mxGeometry x="365" y="560" width="60" height="30" as="geometry" />
        </mxCell>
        <mxCell id="rGakkJB8vv-mSL2w8_nE-49" value="" style="endArrow=none;html=1;rounded=0;entryX=0.5;entryY=0;entryDx=0;entryDy=0;exitX=0.365;exitY=1.019;exitDx=0;exitDy=0;exitPerimeter=0;" edge="1" parent="1" source="rGakkJB8vv-mSL2w8_nE-3" target="rGakkJB8vv-mSL2w8_nE-46">
          <mxGeometry width="50" height="50" relative="1" as="geometry">
            <mxPoint x="344" y="450" as="sourcePoint" />
            <mxPoint x="345" y="530" as="targetPoint" />
          </mxGeometry>
        </mxCell>
        <mxCell id="vIUyFsAdmzh0yU3LFWPC-124" value="" style="ellipse;shape=doubleEllipse;whiteSpace=wrap;html=1;aspect=fixed;fillColor=#CCE5FF;" vertex="1" parent="1">
          <mxGeometry x="530" y="-40" width="30" height="30" as="geometry" />
        </mxCell>
        <mxCell id="rGakkJB8vv-mSL2w8_nE-45" value="" style="endArrow=none;html=1;rounded=0;entryX=0.5;entryY=0;entryDx=0;entryDy=0;exitX=0.07;exitY=1;exitDx=0;exitDy=0;exitPerimeter=0;" edge="1" parent="1" source="rGakkJB8vv-mSL2w8_nE-3" target="rGakkJB8vv-mSL2w8_nE-42">
          <mxGeometry width="50" height="50" relative="1" as="geometry">
            <mxPoint x="330" y="50" as="sourcePoint" />
            <mxPoint x="330" y="-40" as="targetPoint" />
          </mxGeometry>
        </mxCell>
        <mxCell id="rGakkJB8vv-mSL2w8_nE-50" value="(1,1)" style="text;whiteSpace=wrap;fontSize=12;" vertex="1" parent="1">
          <mxGeometry x="440" y="120" width="50" height="30" as="geometry" />
        </mxCell>
        <mxCell id="vIUyFsAdmzh0yU3LFWPC-126" value="" style="ellipse;whiteSpace=wrap;html=1;aspect=fixed;fillColor=#CCE5FF;" vertex="1" parent="1">
          <mxGeometry x="390" y="-180" width="30" height="30" as="geometry" />
        </mxCell>
        <mxCell id="vIUyFsAdmzh0yU3LFWPC-114" value="Georreferencia" style="text;html=1;strokeColor=none;fillColor=none;align=center;verticalAlign=middle;whiteSpace=wrap;rounded=0;" vertex="1" parent="1">
          <mxGeometry x="485" y="-80" width="60" height="30" as="geometry" />
        </mxCell>
        <mxCell id="rGakkJB8vv-mSL2w8_nE-53" value="(1,N)" style="text;whiteSpace=wrap;fontSize=12;" vertex="1" parent="1">
          <mxGeometry x="280" y="410" width="50" height="30" as="geometry" />
        </mxCell>
        <mxCell id="vIUyFsAdmzh0yU3LFWPC-129" value="" style="ellipse;whiteSpace=wrap;html=1;aspect=fixed;fillColor=#CCE5FF;" vertex="1" parent="1">
          <mxGeometry x="480" y="-180" width="30" height="30" as="geometry" />
        </mxCell>
        <mxCell id="rGakkJB8vv-mSL2w8_nE-51" value="(1,N)" style="text;whiteSpace=wrap;fontSize=12;" vertex="1" parent="1">
          <mxGeometry x="450" y="330" width="50" height="30" as="geometry" />
        </mxCell>
        <mxCell id="vIUyFsAdmzh0yU3LFWPC-131" value="" style="endArrow=none;html=1;rounded=0;entryX=0.5;entryY=0;entryDx=0;entryDy=0;exitX=0.5;exitY=1;exitDx=0;exitDy=0;" edge="1" parent="1" source="vIUyFsAdmzh0yU3LFWPC-126" target="vIUyFsAdmzh0yU3LFWPC-113">
          <mxGeometry width="50" height="50" relative="1" as="geometry">
            <mxPoint x="430" y="50" as="sourcePoint" />
            <mxPoint x="460" y="-40" as="targetPoint" />
          </mxGeometry>
        </mxCell>
        <mxCell id="vIUyFsAdmzh0yU3LFWPC-113" value="" style="ellipse;whiteSpace=wrap;html=1;aspect=fixed;fillColor=#CCE5FF;" vertex="1" parent="1">
          <mxGeometry x="435" y="-80" width="30" height="30" as="geometry" />
        </mxCell>
        <mxCell id="vIUyFsAdmzh0yU3LFWPC-132" value="" style="endArrow=none;html=1;rounded=0;entryX=0.5;entryY=0;entryDx=0;entryDy=0;exitX=0.5;exitY=1;exitDx=0;exitDy=0;" edge="1" parent="1" source="vIUyFsAdmzh0yU3LFWPC-129" target="vIUyFsAdmzh0yU3LFWPC-113">
          <mxGeometry width="50" height="50" relative="1" as="geometry">
            <mxPoint x="415" y="-140" as="sourcePoint" />
            <mxPoint x="460" y="-70" as="targetPoint" />
          </mxGeometry>
        </mxCell>
        <mxCell id="rGakkJB8vv-mSL2w8_nE-52" value="(1,N)" style="text;whiteSpace=wrap;fontSize=12;" vertex="1" parent="1">
          <mxGeometry x="525" y="410" width="50" height="30" as="geometry" />
        </mxCell>
        <mxCell id="rGakkJB8vv-mSL2w8_nE-54" value="(1,N)" style="text;whiteSpace=wrap;fontSize=12;" vertex="1" parent="1">
          <mxGeometry x="-170" y="370" width="50" height="30" as="geometry" />
        </mxCell>
        <mxCell id="vIUyFsAdmzh0yU3LFWPC-133" value="Latitud" style="text;html=1;strokeColor=none;fillColor=none;align=center;verticalAlign=middle;whiteSpace=wrap;rounded=0;" vertex="1" parent="1">
          <mxGeometry x="330" y="-180" width="60" height="30" as="geometry" />
        </mxCell>
        <mxCell id="vIUyFsAdmzh0yU3LFWPC-134" value="Longitud" style="text;html=1;strokeColor=none;fillColor=none;align=center;verticalAlign=middle;whiteSpace=wrap;rounded=0;" vertex="1" parent="1">
          <mxGeometry x="520" y="-180" width="60" height="30" as="geometry" />
        </mxCell>
        <mxCell id="rGakkJB8vv-mSL2w8_nE-55" value="(1,1)" style="text;whiteSpace=wrap;fontSize=12;" vertex="1" parent="1">
          <mxGeometry x="-270" y="330" width="50" height="30" as="geometry" />
        </mxCell>
        <mxCell id="rGakkJB8vv-mSL2w8_nE-56" value="(0,N)" style="text;whiteSpace=wrap;fontSize=12;" vertex="1" parent="1">
          <mxGeometry x="230" y="-190" width="50" height="30" as="geometry" />
        </mxCell>
        <mxCell id="rGakkJB8vv-mSL2w8_nE-58" value="(0,N)" style="text;whiteSpace=wrap;fontSize=12;" vertex="1" parent="1">
          <mxGeometry x="390" y="-260" width="50" height="30" as="geometry" />
        </mxCell>
        <mxCell id="rGakkJB8vv-mSL2w8_nE-59" value="(0,N)" style="text;whiteSpace=wrap;fontSize=12;" vertex="1" parent="1">
          <mxGeometry x="140" y="-260" width="50" height="30" as="geometry" />
        </mxCell>
        <mxCell id="vIUyFsAdmzh0yU3LFWPC-141" value="" style="group;fillColor=none;" connectable="0" vertex="1" parent="1">
          <mxGeometry x="-405" y="-440" width="60" height="60" as="geometry" />
        </mxCell>
        <mxCell id="vIUyFsAdmzh0yU3LFWPC-142" value="" style="ellipse;whiteSpace=wrap;html=1;aspect=fixed;fillColor=#B9E0A5;" vertex="1" parent="vIUyFsAdmzh0yU3LFWPC-141">
          <mxGeometry x="30" y="13.75" width="30" height="30" as="geometry" />
        </mxCell>
        <mxCell id="vIUyFsAdmzh0yU3LFWPC-143" value="Fidelizado" style="text;html=1;strokeColor=none;fillColor=none;align=center;verticalAlign=middle;whiteSpace=wrap;rounded=0;" vertex="1" parent="1">
          <mxGeometry x="-330" y="-425" width="60" height="30" as="geometry" />
        </mxCell>
        <mxCell id="vIUyFsAdmzh0yU3LFWPC-145" value="" style="group" connectable="0" vertex="1" parent="1">
          <mxGeometry x="-515" y="-710" width="60" height="60" as="geometry" />
        </mxCell>
        <mxCell id="vIUyFsAdmzh0yU3LFWPC-146" value="Fecha de Ingreso" style="text;html=1;strokeColor=none;fillColor=none;align=center;verticalAlign=middle;whiteSpace=wrap;rounded=0;" vertex="1" parent="vIUyFsAdmzh0yU3LFWPC-145">
          <mxGeometry x="160" y="120" width="60" height="30" as="geometry" />
        </mxCell>
        <mxCell id="vIUyFsAdmzh0yU3LFWPC-148" value="" style="endArrow=none;html=1;rounded=0;entryX=0.5;entryY=1;entryDx=0;entryDy=0;" edge="1" parent="1" target="vIUyFsAdmzh0yU3LFWPC-142">
          <mxGeometry width="50" height="50" relative="1" as="geometry">
            <mxPoint x="-424.5488721804513" y="-270" as="sourcePoint" />
            <mxPoint x="130" y="-90" as="targetPoint" />
          </mxGeometry>
        </mxCell>
        <mxCell id="vIUyFsAdmzh0yU3LFWPC-150" value="" style="endArrow=none;html=1;rounded=0;entryX=0.5;entryY=1;entryDx=0;entryDy=0;exitX=0.5;exitY=0;exitDx=0;exitDy=0;" edge="1" parent="1" source="vIUyFsAdmzh0yU3LFWPC-142" target="vIUyFsAdmzh0yU3LFWPC-165">
          <mxGeometry width="50" height="50" relative="1" as="geometry">
            <mxPoint x="-335" y="-430" as="sourcePoint" />
            <mxPoint x="-310" y="-20" as="targetPoint" />
          </mxGeometry>
        </mxCell>
        <mxCell id="vIUyFsAdmzh0yU3LFWPC-151" value="" style="group" connectable="0" vertex="1" parent="1">
          <mxGeometry x="-565" y="-460" width="60" height="60" as="geometry" />
        </mxCell>
        <mxCell id="vIUyFsAdmzh0yU3LFWPC-152" value="" style="ellipse;whiteSpace=wrap;html=1;aspect=fixed;fillColor=#000000;" vertex="1" parent="vIUyFsAdmzh0yU3LFWPC-151">
          <mxGeometry x="15" y="30" width="30" height="30" as="geometry" />
        </mxCell>
        <mxCell id="vIUyFsAdmzh0yU3LFWPC-153" value="NIF" style="text;html=1;strokeColor=none;fillColor=none;align=center;verticalAlign=middle;whiteSpace=wrap;rounded=0;" vertex="1" parent="vIUyFsAdmzh0yU3LFWPC-151">
          <mxGeometry width="60" height="30" as="geometry" />
        </mxCell>
        <mxCell id="vIUyFsAdmzh0yU3LFWPC-154" value="" style="endArrow=none;html=1;rounded=0;exitX=0.5;exitY=1;exitDx=0;exitDy=0;entryX=0.25;entryY=0;entryDx=0;entryDy=0;" edge="1" parent="1" source="vIUyFsAdmzh0yU3LFWPC-152">
          <mxGeometry width="50" height="50" relative="1" as="geometry">
            <mxPoint x="-570" y="-170" as="sourcePoint" />
            <mxPoint x="-495" y="-270" as="targetPoint" />
          </mxGeometry>
        </mxCell>
        <mxCell id="vIUyFsAdmzh0yU3LFWPC-155" value="" style="endArrow=none;html=1;rounded=0;" edge="1" parent="1">
          <mxGeometry width="50" height="50" relative="1" as="geometry">
            <mxPoint x="-445" y="-400" as="sourcePoint" />
            <mxPoint x="-445" y="-270" as="targetPoint" />
          </mxGeometry>
        </mxCell>
        <mxCell id="vIUyFsAdmzh0yU3LFWPC-138" value="" style="group" connectable="0" vertex="1" parent="1">
          <mxGeometry x="-455" y="-440" width="60" height="60" as="geometry" />
        </mxCell>
        <mxCell id="vIUyFsAdmzh0yU3LFWPC-139" value="" style="ellipse;whiteSpace=wrap;html=1;aspect=fixed;fillColor=#CCE5FF;" vertex="1" parent="vIUyFsAdmzh0yU3LFWPC-138">
          <mxGeometry x="-5" y="10" width="30" height="30" as="geometry" />
        </mxCell>
        <mxCell id="rGakkJB8vv-mSL2w8_nE-63" value="0:N" style="text;html=1;strokeColor=none;fillColor=none;align=center;verticalAlign=middle;whiteSpace=wrap;rounded=0;fontColor=#FF0000;" vertex="1" parent="1">
          <mxGeometry x="897" y="440" width="60" height="30" as="geometry" />
        </mxCell>
        <mxCell id="vIUyFsAdmzh0yU3LFWPC-140" value="Nombre" style="text;html=1;strokeColor=none;fillColor=none;align=center;verticalAlign=middle;whiteSpace=wrap;rounded=0;" vertex="1" parent="1">
          <mxGeometry x="-475" y="-460" width="60" height="30" as="geometry" />
        </mxCell>
        <mxCell id="rGakkJB8vv-mSL2w8_nE-60" value="(0,N)" style="text;whiteSpace=wrap;fontSize=12;" vertex="1" parent="1">
          <mxGeometry x="942" y="120" width="50" height="30" as="geometry" />
        </mxCell>
        <mxCell id="rGakkJB8vv-mSL2w8_nE-61" value="(1,N)" style="text;whiteSpace=wrap;fontSize=12;" vertex="1" parent="1">
          <mxGeometry x="1084" y="50" width="50" height="30" as="geometry" />
        </mxCell>
        <mxCell id="rGakkJB8vv-mSL2w8_nE-62" value="(1,N)" style="text;whiteSpace=wrap;fontSize=12;" vertex="1" parent="1">
          <mxGeometry x="842" y="50" width="50" height="30" as="geometry" />
        </mxCell>
        <mxCell id="rGakkJB8vv-mSL2w8_nE-64" value="1:N" style="text;html=1;strokeColor=none;fillColor=none;align=center;verticalAlign=middle;whiteSpace=wrap;rounded=0;fontColor=#FF0000;" vertex="1" parent="1">
          <mxGeometry x="675" y="10" width="60" height="30" as="geometry" />
        </mxCell>
        <mxCell id="rGakkJB8vv-mSL2w8_nE-65" value="1:N" style="text;html=1;strokeColor=none;fillColor=none;align=center;verticalAlign=middle;whiteSpace=wrap;rounded=0;fontColor=#FF0000;" vertex="1" parent="1">
          <mxGeometry x="520" y="235" width="60" height="30" as="geometry" />
        </mxCell>
        <mxCell id="vIUyFsAdmzh0yU3LFWPC-165" value="" style="ellipse;whiteSpace=wrap;html=1;aspect=fixed;fillColor=#CCE5FF;" vertex="1" parent="1">
          <mxGeometry x="-340" y="-550" width="30" height="30" as="geometry" />
        </mxCell>
        <mxCell id="rGakkJB8vv-mSL2w8_nE-66" value="0:N" style="text;html=1;strokeColor=none;fillColor=none;align=center;verticalAlign=middle;whiteSpace=wrap;rounded=0;fontColor=#FF0000;" vertex="1" parent="1">
          <mxGeometry x="1470" y="65" width="60" height="30" as="geometry" />
        </mxCell>
        <mxCell id="rGakkJB8vv-mSL2w8_nE-67" value="1:N" style="text;html=1;strokeColor=none;fillColor=none;align=center;verticalAlign=middle;whiteSpace=wrap;rounded=0;fontColor=#FF0000;" vertex="1" parent="1">
          <mxGeometry x="15" y="330" width="60" height="30" as="geometry" />
        </mxCell>
        <mxCell id="vIUyFsAdmzh0yU3LFWPC-166" value="" style="endArrow=none;html=1;rounded=0;exitX=0.5;exitY=0;exitDx=0;exitDy=0;" edge="1" parent="1" source="vIUyFsAdmzh0yU3LFWPC-142">
          <mxGeometry width="50" height="50" relative="1" as="geometry">
            <mxPoint x="-350" y="-416" as="sourcePoint" />
            <mxPoint x="-415" y="-530" as="targetPoint" />
          </mxGeometry>
        </mxCell>
        <mxCell id="vIUyFsAdmzh0yU3LFWPC-167" value="" style="ellipse;whiteSpace=wrap;html=1;aspect=fixed;fillColor=#CCE5FF;" vertex="1" parent="1">
          <mxGeometry x="-425" y="-550" width="30" height="30" as="geometry" />
        </mxCell>
        <mxCell id="rGakkJB8vv-mSL2w8_nE-68" value="1:N" style="text;html=1;strokeColor=none;fillColor=none;align=center;verticalAlign=middle;whiteSpace=wrap;rounded=0;fontColor=#FF0000;" vertex="1" parent="1">
          <mxGeometry x="-430" y="25" width="60" height="30" as="geometry" />
        </mxCell>
        <mxCell id="rGakkJB8vv-mSL2w8_nE-69" value="(1,1)" style="text;whiteSpace=wrap;fontSize=12;" vertex="1" parent="1">
          <mxGeometry x="-340" y="-260" width="50" height="30" as="geometry" />
        </mxCell>
        <mxCell id="rGakkJB8vv-mSL2w8_nE-71" value="1:N" style="text;html=1;strokeColor=none;fillColor=none;align=center;verticalAlign=middle;whiteSpace=wrap;rounded=0;fontColor=#FF0000;" vertex="1" parent="1">
          <mxGeometry x="-135" y="-300" width="60" height="30" as="geometry" />
        </mxCell>
        <mxCell id="vIUyFsAdmzh0yU3LFWPC-168" value="Volumen de Compra&lt;br&gt;Mensual*&lt;sup&gt;3&lt;/sup&gt;" style="text;html=1;strokeColor=none;fillColor=none;align=center;verticalAlign=middle;whiteSpace=wrap;rounded=0;" vertex="1" parent="1">
          <mxGeometry x="-485" y="-550" width="60" height="30" as="geometry" />
        </mxCell>
        <mxCell id="vIUyFsAdmzh0yU3LFWPC-171" value="" style="ellipse;whiteSpace=wrap;html=1;aspect=fixed;fillColor=#CCE5FF;dashed=1;" vertex="1" parent="1">
          <mxGeometry x="-620" y="-425" width="30" height="30" as="geometry" />
        </mxCell>
        <mxCell id="vIUyFsAdmzh0yU3LFWPC-172" value="Bonificaciones*&lt;sup&gt;1&lt;/sup&gt;" style="text;html=1;strokeColor=none;fillColor=none;align=center;verticalAlign=middle;whiteSpace=wrap;rounded=0;" vertex="1" parent="1">
          <mxGeometry x="-700" y="-425" width="60" height="30" as="geometry" />
        </mxCell>
        <mxCell id="rGakkJB8vv-mSL2w8_nE-72" value="" style="ellipse;whiteSpace=wrap;html=1;aspect=fixed;fillColor=#CCE5FF;" vertex="1" parent="1">
          <mxGeometry x="410" y="640" width="30" height="30" as="geometry" />
        </mxCell>
        <mxCell id="rGakkJB8vv-mSL2w8_nE-73" value="" style="ellipse;whiteSpace=wrap;html=1;aspect=fixed;fillColor=#CCE5FF;" vertex="1" parent="1">
          <mxGeometry x="480" y="640" width="30" height="30" as="geometry" />
        </mxCell>
        <mxCell id="rGakkJB8vv-mSL2w8_nE-74" value="Latitud" style="text;html=1;strokeColor=none;fillColor=none;align=center;verticalAlign=middle;whiteSpace=wrap;rounded=0;" vertex="1" parent="1">
          <mxGeometry x="400" y="680" width="60" height="30" as="geometry" />
        </mxCell>
        <mxCell id="rGakkJB8vv-mSL2w8_nE-75" value="Longitud" style="text;html=1;strokeColor=none;fillColor=none;align=center;verticalAlign=middle;whiteSpace=wrap;rounded=0;" vertex="1" parent="1">
          <mxGeometry x="470" y="680" width="60" height="30" as="geometry" />
        </mxCell>
        <mxCell id="rGakkJB8vv-mSL2w8_nE-77" value="Georreferencia" style="text;html=1;strokeColor=none;fillColor=none;align=center;verticalAlign=middle;whiteSpace=wrap;rounded=0;" vertex="1" parent="1">
          <mxGeometry x="490" y="520" width="60" height="30" as="geometry" />
        </mxCell>
        <mxCell id="rGakkJB8vv-mSL2w8_nE-78" value="" style="ellipse;whiteSpace=wrap;html=1;aspect=fixed;fillColor=#CCE5FF;" vertex="1" parent="1">
          <mxGeometry x="440" y="520" width="30" height="30" as="geometry" />
        </mxCell>
        <mxCell id="rGakkJB8vv-mSL2w8_nE-79" value="" style="endArrow=none;html=1;rounded=0;entryX=0.5;entryY=0;entryDx=0;entryDy=0;exitX=0.673;exitY=1.02;exitDx=0;exitDy=0;exitPerimeter=0;" edge="1" parent="1" source="rGakkJB8vv-mSL2w8_nE-3" target="rGakkJB8vv-mSL2w8_nE-78">
          <mxGeometry width="50" height="50" relative="1" as="geometry">
            <mxPoint x="403" y="452" as="sourcePoint" />
            <mxPoint x="405" y="530" as="targetPoint" />
          </mxGeometry>
        </mxCell>
        <mxCell id="rGakkJB8vv-mSL2w8_nE-80" value="" style="endArrow=none;html=1;rounded=0;entryX=0.5;entryY=0;entryDx=0;entryDy=0;exitX=0.5;exitY=1;exitDx=0;exitDy=0;" edge="1" parent="1" source="rGakkJB8vv-mSL2w8_nE-78" target="rGakkJB8vv-mSL2w8_nE-72">
          <mxGeometry width="50" height="50" relative="1" as="geometry">
            <mxPoint x="465" y="452" as="sourcePoint" />
            <mxPoint x="465" y="530" as="targetPoint" />
          </mxGeometry>
        </mxCell>
        <mxCell id="rGakkJB8vv-mSL2w8_nE-81" value="" style="endArrow=none;html=1;rounded=0;entryX=0.5;entryY=0;entryDx=0;entryDy=0;exitX=0.693;exitY=1.009;exitDx=0;exitDy=0;exitPerimeter=0;" edge="1" parent="1" source="rGakkJB8vv-mSL2w8_nE-78" target="rGakkJB8vv-mSL2w8_nE-73">
          <mxGeometry width="50" height="50" relative="1" as="geometry">
            <mxPoint x="475" y="462" as="sourcePoint" />
            <mxPoint x="475" y="540" as="targetPoint" />
          </mxGeometry>
        </mxCell>
        <mxCell id="vIUyFsAdmzh0yU3LFWPC-176" value="" style="ellipse;whiteSpace=wrap;html=1;aspect=fixed;fillColor=#000000;" vertex="1" parent="1">
          <mxGeometry x="879" y="-80" width="30" height="30" as="geometry" />
        </mxCell>
        <mxCell id="vIUyFsAdmzh0yU3LFWPC-177" value="" style="endArrow=none;html=1;rounded=0;entryX=0.5;entryY=1;entryDx=0;entryDy=0;exitX=0.25;exitY=0;exitDx=0;exitDy=0;" edge="1" parent="1" source="vIUyFsAdmzh0yU3LFWPC-5" target="vIUyFsAdmzh0yU3LFWPC-176">
          <mxGeometry width="50" height="50" relative="1" as="geometry">
            <mxPoint x="432" y="50" as="sourcePoint" />
            <mxPoint x="382" y="-40" as="targetPoint" />
          </mxGeometry>
        </mxCell>
        <mxCell id="vIUyFsAdmzh0yU3LFWPC-178" value="CÃ³digo Producto" style="text;html=1;strokeColor=none;fillColor=none;align=center;verticalAlign=middle;whiteSpace=wrap;rounded=0;" vertex="1" parent="1">
          <mxGeometry x="862" y="-110" width="60" height="30" as="geometry" />
        </mxCell>
        <mxCell id="rGakkJB8vv-mSL2w8_nE-82" value="" style="ellipse;whiteSpace=wrap;html=1;aspect=fixed;fillColor=#000000;" vertex="1" parent="1">
          <mxGeometry x="-375" y="510" width="30" height="30" as="geometry" />
        </mxCell>
        <mxCell id="rGakkJB8vv-mSL2w8_nE-83" value="NIF" style="text;html=1;strokeColor=none;fillColor=none;align=center;verticalAlign=middle;whiteSpace=wrap;rounded=0;" vertex="1" parent="1">
          <mxGeometry x="-390" y="550" width="60" height="30" as="geometry" />
        </mxCell>
        <mxCell id="rGakkJB8vv-mSL2w8_nE-84" value="" style="endArrow=none;html=1;rounded=0;entryX=0.5;entryY=0;entryDx=0;entryDy=0;exitX=0.083;exitY=1.009;exitDx=0;exitDy=0;exitPerimeter=0;" edge="1" parent="1" target="rGakkJB8vv-mSL2w8_nE-82">
          <mxGeometry width="50" height="50" relative="1" as="geometry">
            <mxPoint x="-358.4000000000001" y="440.72000000000025" as="sourcePoint" />
            <mxPoint x="345" y="530" as="targetPoint" />
          </mxGeometry>
        </mxCell>
        <mxCell id="rGakkJB8vv-mSL2w8_nE-85" value="" style="ellipse;whiteSpace=wrap;html=1;aspect=fixed;fillColor=#CCE5FF;" vertex="1" parent="1">
          <mxGeometry x="-315" y="510" width="30" height="30" as="geometry" />
        </mxCell>
        <mxCell id="rGakkJB8vv-mSL2w8_nE-86" value="Nombre" style="text;html=1;strokeColor=none;fillColor=none;align=center;verticalAlign=middle;whiteSpace=wrap;rounded=0;" vertex="1" parent="1">
          <mxGeometry x="-330" y="550" width="60" height="30" as="geometry" />
        </mxCell>
        <mxCell id="vIUyFsAdmzh0yU3LFWPC-180" value="" style="endArrow=none;html=1;rounded=0;exitX=0.5;exitY=0;exitDx=0;exitDy=0;entryX=0.5;entryY=1;entryDx=0;entryDy=0;" edge="1" parent="1" source="vIUyFsAdmzh0yU3LFWPC-5" target="vIUyFsAdmzh0yU3LFWPC-181">
          <mxGeometry width="50" height="50" relative="1" as="geometry">
            <mxPoint x="442" y="-130" as="sourcePoint" />
            <mxPoint x="972" y="-50" as="targetPoint" />
          </mxGeometry>
        </mxCell>
        <mxCell id="rGakkJB8vv-mSL2w8_nE-87" value="" style="endArrow=none;html=1;rounded=0;entryX=0.5;entryY=0;entryDx=0;entryDy=0;exitX=0.371;exitY=1.001;exitDx=0;exitDy=0;exitPerimeter=0;" edge="1" parent="1" target="rGakkJB8vv-mSL2w8_nE-85">
          <mxGeometry width="50" height="50" relative="1" as="geometry">
            <mxPoint x="-300.8000000000002" y="440.0799999999999" as="sourcePoint" />
            <mxPoint x="-350" y="520" as="targetPoint" />
          </mxGeometry>
        </mxCell>
        <mxCell id="vIUyFsAdmzh0yU3LFWPC-181" value="" style="ellipse;whiteSpace=wrap;html=1;aspect=fixed;fillColor=#CCE5FF;" vertex="1" parent="1">
          <mxGeometry x="952" y="-80" width="30" height="30" as="geometry" />
        </mxCell>
        <mxCell id="vIUyFsAdmzh0yU3LFWPC-182" value="Nombre" style="text;html=1;strokeColor=none;fillColor=none;align=center;verticalAlign=middle;whiteSpace=wrap;rounded=0;" vertex="1" parent="1">
          <mxGeometry x="932" y="-110" width="60" height="30" as="geometry" />
        </mxCell>
        <mxCell id="rGakkJB8vv-mSL2w8_nE-88" value="" style="ellipse;whiteSpace=wrap;html=1;aspect=fixed;fillColor=#CCE5FF;" vertex="1" parent="1">
          <mxGeometry x="-255" y="510" width="30" height="30" as="geometry" />
        </mxCell>
        <mxCell id="vIUyFsAdmzh0yU3LFWPC-183" value="" style="endArrow=none;html=1;rounded=0;exitX=0.75;exitY=0;exitDx=0;exitDy=0;" edge="1" parent="1" source="vIUyFsAdmzh0yU3LFWPC-5">
          <mxGeometry width="50" height="50" relative="1" as="geometry">
            <mxPoint x="982" y="40" as="sourcePoint" />
            <mxPoint x="1022" y="-50" as="targetPoint" />
          </mxGeometry>
        </mxCell>
        <mxCell id="rGakkJB8vv-mSL2w8_nE-89" value="Seguridad&lt;br&gt;Social" style="text;html=1;strokeColor=none;fillColor=none;align=center;verticalAlign=middle;whiteSpace=wrap;rounded=0;" vertex="1" parent="1">
          <mxGeometry x="-270" y="550" width="60" height="30" as="geometry" />
        </mxCell>
        <mxCell id="rGakkJB8vv-mSL2w8_nE-90" value="" style="endArrow=none;html=1;rounded=0;entryX=0.5;entryY=0;entryDx=0;entryDy=0;exitX=0.673;exitY=0.997;exitDx=0;exitDy=0;exitPerimeter=0;" edge="1" parent="1" target="rGakkJB8vv-mSL2w8_nE-88">
          <mxGeometry width="50" height="50" relative="1" as="geometry">
            <mxPoint x="-240.4000000000001" y="439.75999999999976" as="sourcePoint" />
            <mxPoint x="-290" y="520" as="targetPoint" />
          </mxGeometry>
        </mxCell>
        <mxCell id="vIUyFsAdmzh0yU3LFWPC-184" value="" style="ellipse;whiteSpace=wrap;html=1;aspect=fixed;fillColor=#CCE5FF;" vertex="1" parent="1">
          <mxGeometry x="1009" y="-80" width="30" height="30" as="geometry" />
        </mxCell>
        <mxCell id="vIUyFsAdmzh0yU3LFWPC-185" value="Tipo" style="text;html=1;strokeColor=none;fillColor=none;align=center;verticalAlign=middle;whiteSpace=wrap;rounded=0;" vertex="1" parent="1">
          <mxGeometry x="994" y="-110" width="60" height="30" as="geometry" />
        </mxCell>
        <mxCell id="vIUyFsAdmzh0yU3LFWPC-186" value="" style="endArrow=none;html=1;rounded=0;exitX=1;exitY=0;exitDx=0;exitDy=0;entryX=0.5;entryY=1;entryDx=0;entryDy=0;" edge="1" parent="1" source="vIUyFsAdmzh0yU3LFWPC-5" target="vIUyFsAdmzh0yU3LFWPC-187">
          <mxGeometry width="50" height="50" relative="1" as="geometry">
            <mxPoint x="992" y="50" as="sourcePoint" />
            <mxPoint x="1062" y="-50" as="targetPoint" />
          </mxGeometry>
        </mxCell>
        <mxCell id="vIUyFsAdmzh0yU3LFWPC-187" value="" style="ellipse;whiteSpace=wrap;html=1;aspect=fixed;fillColor=#CCE5FF;" vertex="1" parent="1">
          <mxGeometry x="1062" y="-80" width="30" height="30" as="geometry" />
        </mxCell>
        <mxCell id="vIUyFsAdmzh0yU3LFWPC-188" value="Unidades Totales" style="text;html=1;strokeColor=none;fillColor=none;align=center;verticalAlign=middle;whiteSpace=wrap;rounded=0;" vertex="1" parent="1">
          <mxGeometry x="1092" y="-80" width="60" height="30" as="geometry" />
        </mxCell>
        <mxCell id="vIUyFsAdmzh0yU3LFWPC-189" value="" style="ellipse;whiteSpace=wrap;html=1;aspect=fixed;fillColor=#CCE5FF;dashed=1;" vertex="1" parent="1">
          <mxGeometry x="1022" y="-180" width="30" height="30" as="geometry" />
        </mxCell>
        <mxCell id="vIUyFsAdmzh0yU3LFWPC-190" value="" style="ellipse;whiteSpace=wrap;html=1;aspect=fixed;fillColor=#CCE5FF;" vertex="1" parent="1">
          <mxGeometry x="1107" y="-180" width="30" height="30" as="geometry" />
        </mxCell>
        <mxCell id="vIUyFsAdmzh0yU3LFWPC-191" value="" style="endArrow=none;html=1;rounded=0;exitX=0.5;exitY=0;exitDx=0;exitDy=0;entryX=0.5;entryY=1;entryDx=0;entryDy=0;" edge="1" parent="1" source="vIUyFsAdmzh0yU3LFWPC-187" target="vIUyFsAdmzh0yU3LFWPC-189">
          <mxGeometry width="50" height="50" relative="1" as="geometry">
            <mxPoint x="442" y="-220" as="sourcePoint" />
            <mxPoint x="492" y="-270" as="targetPoint" />
          </mxGeometry>
        </mxCell>
        <mxCell id="vIUyFsAdmzh0yU3LFWPC-192" value="" style="endArrow=none;html=1;rounded=0;exitX=0.5;exitY=0;exitDx=0;exitDy=0;entryX=0.5;entryY=1;entryDx=0;entryDy=0;" edge="1" parent="1" source="vIUyFsAdmzh0yU3LFWPC-187" target="vIUyFsAdmzh0yU3LFWPC-190">
          <mxGeometry width="50" height="50" relative="1" as="geometry">
            <mxPoint x="1087" y="-70" as="sourcePoint" />
            <mxPoint x="1047" y="-140" as="targetPoint" />
          </mxGeometry>
        </mxCell>
        <mxCell id="vIUyFsAdmzh0yU3LFWPC-194" value="Unidades Vendidas&lt;sup&gt;*2&lt;/sup&gt;" style="text;html=1;strokeColor=none;fillColor=none;align=center;verticalAlign=middle;whiteSpace=wrap;rounded=0;" vertex="1" parent="1">
          <mxGeometry x="942" y="-180" width="67" height="30" as="geometry" />
        </mxCell>
        <mxCell id="vIUyFsAdmzh0yU3LFWPC-195" value="Stock" style="text;html=1;strokeColor=none;fillColor=none;align=center;verticalAlign=middle;whiteSpace=wrap;rounded=0;" vertex="1" parent="1">
          <mxGeometry x="1142" y="-180" width="60" height="30" as="geometry" />
        </mxCell>
        <mxCell id="vIUyFsAdmzh0yU3LFWPC-196" value="&lt;div align=&quot;left&quot; style=&quot;border-color: var(--border-color); color: rgb(0, 0, 0); font-family: Helvetica; font-size: 12px; font-style: normal; font-variant-ligatures: normal; font-variant-caps: normal; font-weight: 400; letter-spacing: normal; orphans: 2; text-indent: 0px; text-transform: none; widows: 2; word-spacing: 0px; -webkit-text-stroke-width: 0px; background-color: rgb(251, 251, 251); text-decoration-thickness: initial; text-decoration-style: initial; text-decoration-color: initial;&quot;&gt;&lt;font style=&quot;border-color: var(--border-color); font-size: 18px;&quot;&gt;&lt;font style=&quot;border-color: var(--border-color);&quot;&gt;*&lt;sup style=&quot;border-color: var(--border-color);&quot;&gt;1&lt;/sup&gt;&lt;/font&gt;&lt;font style=&quot;border-color: var(--border-color);&quot;&gt;Se calcula a partir del volumen de compras del cliente&lt;/font&gt;&lt;/font&gt;&lt;/div&gt;&lt;div align=&quot;left&quot; style=&quot;border-color: var(--border-color); color: rgb(0, 0, 0); font-family: Helvetica; font-style: normal; font-variant-ligatures: normal; font-variant-caps: normal; font-weight: 400; letter-spacing: normal; orphans: 2; text-indent: 0px; text-transform: none; widows: 2; word-spacing: 0px; -webkit-text-stroke-width: 0px; background-color: rgb(251, 251, 251); text-decoration-thickness: initial; text-decoration-style: initial; text-decoration-color: initial;&quot;&gt;&lt;div align=&quot;left&quot; style=&quot;font-size: 12px; border-color: var(--border-color);&quot;&gt;&lt;font style=&quot;border-color: var(--border-color); font-size: 18px;&quot;&gt;&lt;font style=&quot;border-color: var(--border-color);&quot;&gt;*&lt;sup style=&quot;border-color: var(--border-color);&quot;&gt;2&lt;/sup&gt;&lt;/font&gt;&lt;font style=&quot;border-color: var(--border-color);&quot;&gt;Se calcula a partir de Unidades Totales - Stock&lt;/font&gt;&lt;/font&gt;&lt;/div&gt;&lt;div align=&quot;left&quot; style=&quot;border-color: var(--border-color);&quot;&gt;&lt;font style=&quot;border-color: var(--border-color);&quot;&gt;&lt;font style=&quot;border-color: var(--border-color);&quot;&gt;&lt;sup style=&quot;&quot;&gt;&lt;span style=&quot;font-size: 18px;&quot;&gt;*&lt;sup&gt;3&lt;/sup&gt;&lt;/span&gt;&lt;font style=&quot;font-size: 18px;&quot;&gt;Se calcula a partir de la cantidad monetaria gastada&lt;/font&gt;&lt;/sup&gt;&lt;/font&gt;&lt;/font&gt;&lt;/div&gt;&lt;div align=&quot;left&quot; style=&quot;font-size: 12px; border-color: var(--border-color);&quot;&gt;&lt;font size=&quot;3&quot; style=&quot;border-color: var(--border-color);&quot;&gt;&lt;span style=&quot;white-space: pre;&quot;&gt;&#x9;&lt;/span&gt;&lt;br style=&quot;border-color: var(--border-color);&quot;&gt;&lt;/font&gt;&lt;/div&gt;&lt;div align=&quot;left&quot; style=&quot;font-size: 12px; border-color: var(--border-color);&quot;&gt;&lt;font size=&quot;3&quot; style=&quot;border-color: var(--border-color);&quot;&gt;ENRIQUE HERNÃNDEZ CABRERA&lt;/font&gt;&lt;/div&gt;&lt;div align=&quot;left&quot; style=&quot;font-size: 12px; border-color: var(--border-color);&quot;&gt;&lt;font size=&quot;3&quot; style=&quot;border-color: var(--border-color);&quot;&gt;AIRAM HERRERA PLASENCIA&lt;/font&gt;&lt;/div&gt;&lt;/div&gt;" style="text;whiteSpace=wrap;html=1;" vertex="1" parent="1">
          <mxGeometry x="10" y="810" width="560" height="160" as="geometry" />
        </mxCell>
        <mxCell id="rGakkJB8vv-mSL2w8_nE-91" value="" style="ellipse;whiteSpace=wrap;html=1;aspect=fixed;fillColor=#CCE5FF;" vertex="1" parent="1">
          <mxGeometry x="15" y="495" width="30" height="30" as="geometry" />
        </mxCell>
        <mxCell id="rGakkJB8vv-mSL2w8_nE-92" value="Fecha Inicio" style="text;html=1;strokeColor=none;fillColor=none;align=center;verticalAlign=middle;whiteSpace=wrap;rounded=0;" vertex="1" parent="1">
          <mxGeometry y="535" width="60" height="30" as="geometry" />
        </mxCell>
        <mxCell id="rGakkJB8vv-mSL2w8_nE-93" value="" style="ellipse;whiteSpace=wrap;html=1;aspect=fixed;fillColor=#CCE5FF;" vertex="1" parent="1">
          <mxGeometry x="95" y="495" width="30" height="30" as="geometry" />
        </mxCell>
        <mxCell id="rGakkJB8vv-mSL2w8_nE-94" value="Fecha final" style="text;html=1;strokeColor=none;fillColor=none;align=center;verticalAlign=middle;whiteSpace=wrap;rounded=0;" vertex="1" parent="1">
          <mxGeometry x="80" y="535" width="60" height="30" as="geometry" />
        </mxCell>
        <mxCell id="rGakkJB8vv-mSL2w8_nE-95" value="" style="endArrow=none;html=1;rounded=0;entryX=0.5;entryY=0;entryDx=0;entryDy=0;exitX=0.5;exitY=1;exitDx=0;exitDy=0;" edge="1" parent="1" source="rGakkJB8vv-mSL2w8_nE-6" target="rGakkJB8vv-mSL2w8_nE-91">
          <mxGeometry width="50" height="50" relative="1" as="geometry">
            <mxPoint x="-230" y="450" as="sourcePoint" />
            <mxPoint x="-230" y="520" as="targetPoint" />
          </mxGeometry>
        </mxCell>
        <mxCell id="rGakkJB8vv-mSL2w8_nE-96" value="" style="endArrow=none;html=1;rounded=0;entryX=0.5;entryY=0;entryDx=0;entryDy=0;exitX=0.5;exitY=1;exitDx=0;exitDy=0;" edge="1" parent="1" source="rGakkJB8vv-mSL2w8_nE-6" target="rGakkJB8vv-mSL2w8_nE-93">
          <mxGeometry width="50" height="50" relative="1" as="geometry">
            <mxPoint x="55" y="450" as="sourcePoint" />
            <mxPoint x="-5" y="505" as="targetPoint" />
          </mxGeometry>
        </mxCell>
        <mxCell id="rGakkJB8vv-mSL2w8_nE-97" value="&lt;font style=&quot;font-size: 17px;&quot; color=&quot;#006600&quot;&gt;gestiona&lt;br&gt;&lt;br&gt;&lt;/font&gt;" style="text;html=1;strokeColor=none;fillColor=none;align=center;verticalAlign=middle;whiteSpace=wrap;rounded=0;rotation=-90;" vertex="1" parent="1">
          <mxGeometry x="-340" y="240" width="80" height="50" as="geometry" />
        </mxCell>
        <mxCell id="rGakkJB8vv-mSL2w8_nE-98" value="&lt;font style=&quot;font-size: 17px;&quot; color=&quot;#006600&quot;&gt;es gestionado&lt;br&gt;&lt;/font&gt;" style="text;html=1;strokeColor=none;fillColor=none;align=center;verticalAlign=middle;whiteSpace=wrap;rounded=0;rotation=0;" vertex="1" parent="1">
          <mxGeometry x="-120" y="-20" width="80" height="50" as="geometry" />
        </mxCell>
        <mxCell id="vIUyFsAdmzh0yU3LFWPC-211" value="" style="group" connectable="0" vertex="1" parent="1">
          <mxGeometry x="132.5" y="-410" width="295" height="70" as="geometry" />
        </mxCell>
        <mxCell id="vIUyFsAdmzh0yU3LFWPC-197" value="" style="ellipse;whiteSpace=wrap;html=1;aspect=fixed;fillColor=#000000;" vertex="1" parent="vIUyFsAdmzh0yU3LFWPC-211">
          <mxGeometry x="15" y="40" width="30" height="30" as="geometry" />
        </mxCell>
        <mxCell id="vIUyFsAdmzh0yU3LFWPC-198" value="CÃ³digo Pedido" style="text;html=1;strokeColor=none;fillColor=none;align=center;verticalAlign=middle;whiteSpace=wrap;rounded=0;" vertex="1" parent="vIUyFsAdmzh0yU3LFWPC-211">
          <mxGeometry width="60" height="30" as="geometry" />
        </mxCell>
        <mxCell id="vIUyFsAdmzh0yU3LFWPC-210" value="" style="group" connectable="0" vertex="1" parent="vIUyFsAdmzh0yU3LFWPC-211">
          <mxGeometry x="55" width="240" height="70" as="geometry" />
        </mxCell>
        <mxCell id="vIUyFsAdmzh0yU3LFWPC-199" value="" style="ellipse;whiteSpace=wrap;html=1;aspect=fixed;fillColor=#CCE5FF;" vertex="1" parent="vIUyFsAdmzh0yU3LFWPC-210">
          <mxGeometry x="75" y="40" width="30" height="30" as="geometry" />
        </mxCell>
        <mxCell id="vIUyFsAdmzh0yU3LFWPC-200" value="Fecha&lt;br&gt;Pedido" style="text;html=1;strokeColor=none;fillColor=none;align=center;verticalAlign=middle;whiteSpace=wrap;rounded=0;" vertex="1" parent="vIUyFsAdmzh0yU3LFWPC-210">
          <mxGeometry x="60" width="60" height="30" as="geometry" />
        </mxCell>
        <mxCell id="vIUyFsAdmzh0yU3LFWPC-202" value="" style="ellipse;whiteSpace=wrap;html=1;aspect=fixed;fillColor=#CCE5FF;" vertex="1" parent="vIUyFsAdmzh0yU3LFWPC-210">
          <mxGeometry x="135" y="40" width="30" height="30" as="geometry" />
        </mxCell>
        <mxCell id="vIUyFsAdmzh0yU3LFWPC-203" value="Nombre Cliente" style="text;html=1;strokeColor=none;fillColor=none;align=center;verticalAlign=middle;whiteSpace=wrap;rounded=0;" vertex="1" parent="vIUyFsAdmzh0yU3LFWPC-210">
          <mxGeometry x="120" width="60" height="30" as="geometry" />
        </mxCell>
        <mxCell id="vIUyFsAdmzh0yU3LFWPC-204" value="" style="ellipse;whiteSpace=wrap;html=1;aspect=fixed;fillColor=#CCE5FF;" vertex="1" parent="vIUyFsAdmzh0yU3LFWPC-210">
          <mxGeometry x="190" y="40" width="30" height="30" as="geometry" />
        </mxCell>
        <mxCell id="vIUyFsAdmzh0yU3LFWPC-205" value="Forma&lt;br&gt;Pago" style="text;html=1;strokeColor=none;fillColor=none;align=center;verticalAlign=middle;whiteSpace=wrap;rounded=0;" vertex="1" parent="vIUyFsAdmzh0yU3LFWPC-210">
          <mxGeometry x="180" width="60" height="30" as="geometry" />
        </mxCell>
        <mxCell id="vIUyFsAdmzh0yU3LFWPC-206" value="" style="ellipse;whiteSpace=wrap;html=1;aspect=fixed;fillColor=#CCE5FF;" vertex="1" parent="vIUyFsAdmzh0yU3LFWPC-210">
          <mxGeometry x="15" y="40" width="30" height="30" as="geometry" />
        </mxCell>
        <mxCell id="vIUyFsAdmzh0yU3LFWPC-207" value="Importe" style="text;html=1;strokeColor=none;fillColor=none;align=center;verticalAlign=middle;whiteSpace=wrap;rounded=0;" vertex="1" parent="vIUyFsAdmzh0yU3LFWPC-210">
          <mxGeometry width="60" height="30" as="geometry" />
        </mxCell>
        <mxCell id="vIUyFsAdmzh0yU3LFWPC-213" value="" style="endArrow=none;html=1;rounded=0;exitX=0.5;exitY=1;exitDx=0;exitDy=0;entryX=0.25;entryY=0;entryDx=0;entryDy=0;" edge="1" parent="1" source="vIUyFsAdmzh0yU3LFWPC-197" target="vIUyFsAdmzh0yU3LFWPC-23">
          <mxGeometry width="50" height="50" relative="1" as="geometry">
            <mxPoint x="350" y="-130" as="sourcePoint" />
            <mxPoint x="400" y="-180" as="targetPoint" />
          </mxGeometry>
        </mxCell>
        <mxCell id="rGakkJB8vv-mSL2w8_nE-99" value="&lt;font style=&quot;font-size: 17px;&quot; color=&quot;#006600&quot;&gt;encarga&lt;br&gt;&lt;/font&gt;" style="text;html=1;strokeColor=none;fillColor=none;align=center;verticalAlign=middle;whiteSpace=wrap;rounded=0;rotation=0;" vertex="1" parent="1">
          <mxGeometry x="-310" y="-290" width="80" height="50" as="geometry" />
        </mxCell>
        <mxCell id="vIUyFsAdmzh0yU3LFWPC-214" value="" style="endArrow=none;html=1;rounded=0;exitX=0.5;exitY=1;exitDx=0;exitDy=0;entryX=0.25;entryY=0;entryDx=0;entryDy=0;" edge="1" parent="1" source="vIUyFsAdmzh0yU3LFWPC-206" target="vIUyFsAdmzh0yU3LFWPC-23">
          <mxGeometry width="50" height="50" relative="1" as="geometry">
            <mxPoint x="173" y="-330" as="sourcePoint" />
            <mxPoint x="240" y="-260" as="targetPoint" />
          </mxGeometry>
        </mxCell>
        <mxCell id="rGakkJB8vv-mSL2w8_nE-100" value="&lt;font style=&quot;font-size: 17px;&quot; color=&quot;#006600&quot;&gt;es encargado&lt;br&gt;&lt;/font&gt;" style="text;html=1;strokeColor=none;fillColor=none;align=center;verticalAlign=middle;whiteSpace=wrap;rounded=0;rotation=0;" vertex="1" parent="1">
          <mxGeometry x="30" y="-290" width="80" height="50" as="geometry" />
        </mxCell>
        <mxCell id="vIUyFsAdmzh0yU3LFWPC-215" value="" style="endArrow=none;html=1;rounded=0;exitX=0.5;exitY=1;exitDx=0;exitDy=0;entryX=0.5;entryY=0;entryDx=0;entryDy=0;" edge="1" parent="1" source="vIUyFsAdmzh0yU3LFWPC-199" target="vIUyFsAdmzh0yU3LFWPC-23">
          <mxGeometry width="50" height="50" relative="1" as="geometry">
            <mxPoint x="228" y="-330" as="sourcePoint" />
            <mxPoint x="240" y="-260" as="targetPoint" />
          </mxGeometry>
        </mxCell>
        <mxCell id="vIUyFsAdmzh0yU3LFWPC-216" value="" style="endArrow=none;html=1;rounded=0;exitX=0.5;exitY=1;exitDx=0;exitDy=0;entryX=0.75;entryY=0;entryDx=0;entryDy=0;" edge="1" parent="1" source="vIUyFsAdmzh0yU3LFWPC-202" target="vIUyFsAdmzh0yU3LFWPC-23">
          <mxGeometry width="50" height="50" relative="1" as="geometry">
            <mxPoint x="288" y="-330" as="sourcePoint" />
            <mxPoint x="290" y="-260" as="targetPoint" />
          </mxGeometry>
        </mxCell>
        <mxCell id="vIUyFsAdmzh0yU3LFWPC-217" value="" style="endArrow=none;html=1;rounded=0;exitX=0.5;exitY=1;exitDx=0;exitDy=0;entryX=0.75;entryY=0;entryDx=0;entryDy=0;" edge="1" parent="1" source="vIUyFsAdmzh0yU3LFWPC-204" target="vIUyFsAdmzh0yU3LFWPC-23">
          <mxGeometry width="50" height="50" relative="1" as="geometry">
            <mxPoint x="348" y="-330" as="sourcePoint" />
            <mxPoint x="340" y="-260" as="targetPoint" />
          </mxGeometry>
        </mxCell>
        <mxCell id="ZuWLe_8obda5D4zi6fmT-3" style="edgeStyle=orthogonalEdgeStyle;rounded=0;orthogonalLoop=1;jettySize=auto;html=1;" edge="1" parent="1">
          <mxGeometry relative="1" as="geometry">
            <mxPoint x="740" y="-255.62" as="targetPoint" />
            <mxPoint x="630" y="-255.62000000000023" as="sourcePoint" />
            <Array as="points">
              <mxPoint x="685" y="-255.62" />
              <mxPoint x="740" y="-254.62" />
            </Array>
          </mxGeometry>
        </mxCell>
        <mxCell id="rGakkJB8vv-mSL2w8_nE-101" value="&lt;font style=&quot;&quot; color=&quot;#006600&quot;&gt;&lt;span style=&quot;font-size: 17px;&quot;&gt;estÃ¡n&amp;nbsp;compuestos&lt;/span&gt;&lt;br&gt;&lt;/font&gt;" style="text;html=1;strokeColor=none;fillColor=none;align=center;verticalAlign=middle;whiteSpace=wrap;rounded=0;rotation=0;" vertex="1" parent="1">
          <mxGeometry x="520" y="-280" width="80" height="50" as="geometry" />
        </mxCell>
        <mxCell id="rGakkJB8vv-mSL2w8_nE-102" value="&lt;font style=&quot;&quot; color=&quot;#006600&quot;&gt;&lt;span style=&quot;font-size: 17px;&quot;&gt;estÃ¡n&amp;nbsp;en&lt;/span&gt;&lt;br&gt;&lt;/font&gt;" style="text;html=1;strokeColor=none;fillColor=none;align=center;verticalAlign=middle;whiteSpace=wrap;rounded=0;rotation=0;" vertex="1" parent="1">
          <mxGeometry x="1152" y="30" width="80" height="50" as="geometry" />
        </mxCell>
        <mxCell id="rGakkJB8vv-mSL2w8_nE-103" value="&lt;font style=&quot;&quot; color=&quot;#006600&quot;&gt;&lt;span style=&quot;font-size: 17px;&quot;&gt;oferta&lt;/span&gt;&lt;br&gt;&lt;/font&gt;" style="text;html=1;strokeColor=none;fillColor=none;align=center;verticalAlign=middle;whiteSpace=wrap;rounded=0;rotation=0;" vertex="1" parent="1">
          <mxGeometry x="525" y="15" width="80" height="50" as="geometry" />
        </mxCell>
        <mxCell id="rGakkJB8vv-mSL2w8_nE-104" value="&lt;font style=&quot;&quot; color=&quot;#006600&quot;&gt;&lt;span style=&quot;font-size: 17px;&quot;&gt;ofertado&lt;/span&gt;&lt;br&gt;&lt;/font&gt;" style="text;html=1;strokeColor=none;fillColor=none;align=center;verticalAlign=middle;whiteSpace=wrap;rounded=0;rotation=0;" vertex="1" parent="1">
          <mxGeometry x="794" y="15" width="80" height="50" as="geometry" />
        </mxCell>
        <mxCell id="rGakkJB8vv-mSL2w8_nE-105" value="&lt;font style=&quot;&quot; color=&quot;#006600&quot;&gt;&lt;span style=&quot;font-size: 17px;&quot;&gt;se asignan&lt;/span&gt;&lt;br&gt;&lt;/font&gt;" style="text;html=1;strokeColor=none;fillColor=none;align=center;verticalAlign=middle;whiteSpace=wrap;rounded=0;rotation=-90;" vertex="1" parent="1">
          <mxGeometry x="892" y="210" width="106" height="50" as="geometry" />
        </mxCell>
        <mxCell id="rGakkJB8vv-mSL2w8_nE-106" value="&lt;font style=&quot;&quot; color=&quot;#006600&quot;&gt;&lt;span style=&quot;font-size: 17px;&quot;&gt;son asignados&lt;/span&gt;&lt;br&gt;&lt;/font&gt;" style="text;html=1;strokeColor=none;fillColor=none;align=center;verticalAlign=middle;whiteSpace=wrap;rounded=0;rotation=0;" vertex="1" parent="1">
          <mxGeometry x="675" y="340" width="125" height="50" as="geometry" />
        </mxCell>
        <mxCell id="rGakkJB8vv-mSL2w8_nE-107" value="&lt;font style=&quot;font-size: 17px;&quot; color=&quot;#006600&quot;&gt;trabajan&lt;br&gt;&lt;/font&gt;" style="text;html=1;strokeColor=none;fillColor=none;align=center;verticalAlign=middle;whiteSpace=wrap;rounded=0;rotation=0;" vertex="1" parent="1">
          <mxGeometry x="-135" y="340" width="80" height="50" as="geometry" />
        </mxCell>
        <mxCell id="rGakkJB8vv-mSL2w8_nE-108" value="&lt;font style=&quot;font-size: 17px;&quot; color=&quot;#006600&quot;&gt;es trabajada&lt;br&gt;&lt;/font&gt;" style="text;html=1;strokeColor=none;fillColor=none;align=center;verticalAlign=middle;whiteSpace=wrap;rounded=0;rotation=0;" vertex="1" parent="1">
          <mxGeometry x="180" y="340" width="100" height="50" as="geometry" />
        </mxCell>
        <mxCell id="rGakkJB8vv-mSL2w8_nE-109" value="&lt;font style=&quot;&quot; color=&quot;#006600&quot;&gt;&lt;span style=&quot;font-size: 17px;&quot;&gt;estÃ¡ formado&lt;/span&gt;&lt;br&gt;&lt;/font&gt;" style="text;html=1;strokeColor=none;fillColor=none;align=center;verticalAlign=middle;whiteSpace=wrap;rounded=0;rotation=-90;" vertex="1" parent="1">
          <mxGeometry x="330" y="140" width="87.5" height="50" as="geometry" />
        </mxCell>
        <mxCell id="rGakkJB8vv-mSL2w8_nE-110" value="&lt;font style=&quot;&quot; color=&quot;#006600&quot;&gt;&lt;span style=&quot;font-size: 17px;&quot;&gt;estÃ¡n formadas&lt;/span&gt;&lt;br&gt;&lt;/font&gt;" style="text;html=1;strokeColor=none;fillColor=none;align=center;verticalAlign=middle;whiteSpace=wrap;rounded=0;rotation=-90;" vertex="1" parent="1">
          <mxGeometry x="302.5" y="290" width="87.5" height="50" as="geometry" />
        </mxCell>
        <mxCell id="ZuWLe_8obda5D4zi6fmT-1" value="EMPLEADO" style="rounded=0;whiteSpace=wrap;html=1;fillColor=#CCE5FF;" vertex="1" parent="1">
          <mxGeometry x="-375" y="360" width="200" height="80" as="geometry" />
        </mxCell>
        <mxCell id="ZuWLe_8obda5D4zi6fmT-2" value="CLIENTE" style="rounded=0;whiteSpace=wrap;html=1;fillColor=#CCE5FF;" vertex="1" parent="1">
          <mxGeometry x="-545" y="-270" width="200" height="80" as="geometry" />
        </mxCell>
        <mxCell id="lXUrojP_OnguZgJ4JthN-8" value="" style="endArrow=none;html=1;rounded=0;exitX=0.5;exitY=1;exitDx=0;exitDy=0;entryX=0;entryY=0.5;entryDx=0;entryDy=0;" edge="1" parent="1" source="vIUyFsAdmzh0yU3LFWPC-171">
          <mxGeometry width="50" height="50" relative="1" as="geometry">
            <mxPoint x="-525" y="-390" as="sourcePoint" />
            <mxPoint x="-544.9999999999998" y="-230" as="targetPoint" />
          </mxGeometry>
        </mxCell>
        <mxCell id="lXUrojP_OnguZgJ4JthN-9" value="" style="ellipse;whiteSpace=wrap;html=1;aspect=fixed;fillColor=#CCE5FF;dashed=1;" vertex="1" parent="1">
          <mxGeometry x="-425" y="-550" width="30" height="30" as="geometry" />
        </mxCell>
      </root>
    </mxGraphModel>
  </diagram>
</mxfile>
